<?xml version="1.0" encoding="UTF-8" standalone="no"?>
<!-- Created with Inkscape (http://www.inkscape.org/) -->

<svg
   xmlns:dc="http://purl.org/dc/elements/1.1/"
   xmlns:cc="http://creativecommons.org/ns#"
   xmlns:rdf="http://www.w3.org/1999/02/22-rdf-syntax-ns#"
   xmlns:svg="http://www.w3.org/2000/svg"
   xmlns="http://www.w3.org/2000/svg"
   xmlns:sodipodi="http://sodipodi.sourceforge.net/DTD/sodipodi-0.dtd"
   xmlns:inkscape="http://www.inkscape.org/namespaces/inkscape"
   width="206.36761mm"
   height="207.19307mm"
   viewBox="0 0 206.36761 207.19307"
   version="1.1"
   id="svg8"
   inkscape:version="0.92.4 (unknown)"
   sodipodi:docname="boat.svg">
  <defs
     id="defs2" />
  <sodipodi:namedview
     id="base"
     pagecolor="#ffffff"
     bordercolor="#666666"
     borderopacity="1.0"
     inkscape:pageopacity="0.0"
     inkscape:pageshadow="2"
     inkscape:zoom="0.49497475"
     inkscape:cx="183.55318"
     inkscape:cy="39.282179"
     inkscape:document-units="mm"
     inkscape:current-layer="layer1"
     showgrid="false"
     fit-margin-top="0"
     fit-margin-left="0"
     fit-margin-right="0"
     fit-margin-bottom="0"
     inkscape:window-width="1853"
     inkscape:window-height="1025"
     inkscape:window-x="67"
     inkscape:window-y="27"
     inkscape:window-maximized="1" />
  <metadata
     id="metadata5">
    <rdf:RDF>
      <cc:Work
         rdf:about="">
        <dc:format>image/svg+xml</dc:format>
        <dc:type
           rdf:resource="http://purl.org/dc/dcmitype/StillImage" />
        <dc:title />
      </cc:Work>
    </rdf:RDF>
  </metadata>
  <g
     inkscape:label="Layer 1"
     inkscape:groupmode="layer"
     id="layer1"
     transform="translate(-3.4389669,-76.919936)">
    <path
       style="fill:#000000;stroke:#6c70a0;stroke-width:2.82126737;stroke-miterlimit:4;stroke-dasharray:none;stroke-opacity:1"
       d="M 67.020771,230.98524 C 57.1377,220.99818 49.459563,211.77034 42.096223,201.03013 32.962654,182.17285 12.22353,152.02406 34.984951,186.58241 l 0.290124,-0.34379 c 2.37057,-2.80866 3.433701,-3.78344 5.674163,-5.20263 2.372168,-1.50263 2.180427,-1.31857 2.440174,-2.34245 0.482743,-1.90284 0.138665,-3.53541 -1.129055,-5.35727 -0.426521,-0.61297 -1.263931,-1.50463 -2.666288,-2.83905 -1.790699,-1.70304 -2.087516,-2.03633 -2.390754,-2.67681 -1.351,-2.85335 -2.054812,-8.9809 -2.178115,-18.96328 -0.04738,-3.83503 0.0342,-9.88846 0.143889,-10.67837 0.0505,-0.36359 0.600072,-3.07663 1.221286,-6.02902 l 1.129491,-5.36795 -1.758447,-1.79054 C 30.134962,119.26198 23.297491,109.54497 18.505793,100.46858 15.458149,94.695735 12.939596,88.123895 12.168858,83.933142 l -0.214252,-1.164979 1.191842,1.614513 c 7.67293,10.394104 17.171855,17.842894 24.506422,19.217254 1.438362,0.26952 3.454346,0.29277 4.262275,0.0492 0.410022,-0.12361 0.441749,-0.16931 0.650049,-0.93593 0.215298,-0.79193 0.227366,-0.80771 0.698102,-0.91232 0.689946,-0.15331 1.325385,0.037 1.4612,0.43775 0.06096,0.17951 -1.605912,8.40332 -3.807503,18.7859 -2.153679,10.15657 -3.90233,18.55904 -3.885891,18.67215 0.01643,0.11321 6.661184,7.7672 14.766114,17.00908 8.10493,9.24189 14.88714,17.0696 15.071575,17.39496 0.692623,1.22172 1.429301,3.14531 1.603813,4.18779 0.135272,0.80788 0.109827,1.36522 -0.101186,2.2179 -0.416564,1.68294 -0.347719,2.62318 0.302602,4.13166 0.591706,1.37256 0.679641,1.49132 4.595724,6.20699 6.904736,8.31457 10.146841,11.87109 16.455642,18.05141 13.352224,13.08033 40.798004,35.65412 55.847704,42.89277 12.77741,6.14571 25.56003,9.91995 38.67763,11.42009 6.21825,0.71109 10.55187,0.86238 17.35015,0.60562 2.58422,-0.0976 4.43902,-0.10663 4.1218,-0.0201 -2.83031,0.77274 -10.54225,2.50135 -15.96474,3.57854 -16.21719,3.22151 -38.90117,6.37591 -59.23278,8.23681 -2.07602,0.19001 -3.86498,0.37656 -3.97551,0.41458 -0.14861,0.0509 -0.11797,0.12003 0.11674,0.26464 2.15327,1.32468 5.43007,3.44346 5.44031,3.5177 0.007,0.0524 -1.57485,-0.68323 -3.51572,-1.63487 -13.52238,-6.63006 -38.751315,-26.95433 -50.798987,-37.26971 -2.438471,-2.08783 -9.020056,-8.14761 -10.771421,-9.91742 z M 38.309054,123.05302 c 0.129872,-0.62387 0.987652,-4.768 1.90617,-9.20917 l 1.670032,-8.07487 -0.615806,1.02592 c -1.358583,2.26336 -2.841655,5.92442 -3.416464,8.43371 -0.406594,1.77497 -0.605102,3.91674 -0.501886,5.41482 0.0803,1.16548 0.471717,3.30683 0.632277,3.45903 0.04925,0.0466 0.195806,-0.42558 0.325677,-1.04944 z m 56.395597,74.49105 c 1.312957,-1.86331 1.839669,-2.89589 2.401882,-4.7048 1.496048,-4.81342 -0.531486,-9.53934 -5.979798,-13.93805 -3.410584,-2.75355 -6.859612,-4.90594 -15.819031,-9.87206 -7.724238,-4.28148 -11.041778,-6.29776 -14.550108,-8.84305 -1.851676,-1.34342 -5.015483,-4.00349 -4.920984,-4.1375 0.03036,-0.0431 0.561819,-0.16456 1.180932,-0.26989 10.340223,-1.75942 17.1964,-9.85363 19.308106,-22.79461 0.694955,-4.25891 0.924233,-8.8047 0.652678,-12.94104 -0.09083,-1.38324 -0.179647,-1.75747 -0.582007,-2.45184 -0.261154,-0.45067 -0.410073,-0.84081 -0.330924,-0.86702 0.651864,-0.21554 14.063026,14.19923 30.365963,32.63847 10.34327,11.69862 15.85357,21.19658 16.96469,29.24159 0.45433,3.28952 0.21613,5.93627 -0.79018,8.77929 -0.56257,1.58946 -2.59798,4.54464 -3.95532,5.7426 -1.23502,1.09007 -3.49101,2.60227 -5.01061,3.35858 -5.47495,2.72503 -13.909996,3.91153 -19.593694,2.75617 l -0.469564,-0.0954 1.128104,-1.60124 z m 62.561999,54.88402 c 2.22614,-3.53899 2.62484,-6.54907 1.2633,-9.5378 -0.7865,-1.72647 -1.64373,-2.84702 -3.5994,-4.70499 -2.93051,-2.78352 -17.9115,-16.32428 -27.62093,-21.95634 -8.87877,-5.15021 -11.64918,-6.96053 -14.9677,-9.78069 -0.9399,-0.79878 -1.71499,-1.48491 -1.72234,-1.52477 -0.007,-0.0399 0.61534,-0.18591 1.38382,-0.32462 8.65311,-1.56166 13.81984,-7.64922 15.44585,-18.19874 0.55421,-3.59564 0.66362,-7.11708 0.34695,-11.16672 -0.0916,-1.17286 -0.18917,-1.53497 -0.56815,-2.11127 -1.31649,-2.00198 1.63158,0.73932 7.17483,6.67165 6.43196,6.88336 31.65503,32.77291 34.39276,36.02418 7.37849,8.76252 11.40886,16.11455 12.25748,22.35943 0.86865,6.39244 -1.75218,11.14116 -7.7124,13.97413 -4.37766,2.08075 -10.52833,2.96713 -15.34782,2.21177 -1.90166,-0.29805 -1.84726,-0.15312 -0.72625,-1.93522 z m 17.57271,-34.05595 c 1.39433,-2.24864 1.88646,-3.89058 1.70308,-5.68239 -0.12799,-1.25072 -0.60503,-2.4152 -1.48831,-3.6331 -1.73257,-2.38892 -16.99762,-16.17775 -24.68018,-20.27045 -4.76624,-2.53915 -6.63824,-3.60335 -8.47308,-4.8168 -1.42632,-0.94327 -4.1984,-3.09738 -4.22391,-3.28228 -0.007,-0.053 0.65853,-0.28714 1.47967,-0.52043 2.50194,-0.71079 4.61676,-1.8956 6.53461,-3.66094 1.15942,-1.06719 3.21297,-4.13068 3.95861,-5.90542 1.37025,-3.2613 2.25862,-7.46091 2.41081,-11.39681 0.11722,-3.02989 0.0447,-4.1245 -0.30533,-4.61366 -0.1771,-0.24755 -0.23157,-0.4428 -0.13257,-0.47553 0.40039,-0.13248 6.50479,6.45837 16.44301,17.75312 5.26883,5.98802 20.09071,20.80234 22.15978,24.33703 3.38853,5.78883 4.26392,11.26265 2.4612,15.38973 -2.0103,4.60224 -7.86425,7.89826 -14.87936,8.3777 -1.59786,0.10913 -3.61957,0.0462 -3.793,-0.11816 -0.0326,-0.0309 0.33876,-0.69751 0.82497,-1.4816 z m -58.41782,-62.13651 c 3.58181,-5.07855 3.28884,-9.3924 -0.90776,-13.3656 -2.10596,-1.99449 -4.87092,-3.71918 -10.99021,-6.85743 -5.882488,-3.01684 -7.010309,-3.62084 -9.423531,-5.04665 -2.56719,-1.51681 -4.593282,-2.94936 -5.83168,-4.1233 l -0.878663,-0.83292 1.50982,-0.42994 c 6.074063,-1.72963 10.651274,-6.14594 13.422124,-12.95029 1.72439,-4.23449 2.8045,-9.93669 2.86442,-15.122086 0.0275,-2.378942 0.0204,-2.494623 -0.16517,-2.678803 -0.0879,-0.08698 -0.23826,-0.358158 -0.33438,-0.602366 l -0.17476,-0.443941 0.40034,0.233336 c 0.87398,0.509449 5.70079,5.693432 12.95316,13.91162 6.46262,7.32325 10.49132,12.02177 11.96247,13.95141 7.55991,9.9159 9.98181,18.04771 7.36126,24.71628 -0.68932,1.75408 -2.48133,4.18542 -4.08673,5.54466 -4.01005,3.39519 -9.91042,5.51429 -15.78746,5.67 -0.97207,0.0258 -2.02494,0.007 -2.33976,-0.0414 l -0.57236,-0.0881 z"
       id="path32"
       inkscape:connector-curvature="0"
       sodipodi:nodetypes="ccccccccsscccccscssccccscscccsccsscccccccccccccccccsccccscscscccsccsccccccccscscsccsscccccssccscsccccssccscssssscssccccssscscccss" />
  </g>
</svg>
